<svg class="svg-icon" viewBox="0 0 60 60" xmlns="http://www.w3.org/2000/svg"><g fill="none" fill-rule="evenodd"><path d="M30 60c16.569 0 30-13.431 30-30C60 13.431 46.569 0 30 0 13.431 0 0 13.431 0 30c0 16.569 13.431 30 30 30Z" fill="#8c8c8c" class="fill-ca4638 fill-828282"></path><path d="M33.492 33.948c-.623.628-.096 1.771-.096 1.771l4.69 7.833s.77 1.032 1.438 1.032c.67 0 1.333-.55 1.333-.55l3.709-5.302s.373-.668.382-1.254c.013-.833-1.243-1.062-1.243-1.062l-8.78-2.819s-.86-.227-1.433.351ZM33.048 30c.45.761 1.688.54 1.688.54l8.76-2.56s1.194-.486 1.365-1.133c.167-.648-.197-1.428-.197-1.428l-4.186-4.93s-.363-.625-1.116-.687c-.83-.072-1.341.933-1.341.933l-4.95 7.79c0-.001-.437.774-.023 1.475Zm-4.139-3.037c1.032-.254 1.195-1.753 1.195-1.753l-.07-12.472s-.156-1.538-.847-1.954c-1.083-.658-1.405-.314-1.716-.27L20.2 13.219s-.713.236-1.084.83c-.53.842.538 2.076.538 2.076l7.56 10.303s.746.77 1.696.536Zm-1.795 5.047c.025-.961-1.155-1.54-1.155-1.54l-7.818-3.95s-1.158-.477-1.721-.143c-.43.255-.812.714-.85 1.122l-.508 6.268s-.076 1.086.205 1.58c.4.7 1.71.213 1.71.213l9.126-2.017c.354-.24.976-.26 1.01-1.533Zm2.268 3.383c-.783-.403-1.721.431-1.721.431l-6.111 6.727s-.763 1.028-.569 1.66c.182.591.485.887.913 1.093l6.137 1.938s.744.154 1.307-.01c.8-.23.652-1.483.652-1.483l.139-9.109c0 .001-.03-.877-.747-1.247Z" fill="#FFFFFF" class="fill-ffffff"></path></g></svg>